# xmcd
#
# Track frame offsets: 
#        150
#        26639
#        47578
#        66794
#
# Disc length: 1169 seconds
#
# Revision: 1
# Processed by: cddbd v1.5.2PL0 Copyright (c) Steve Scherf et al.
# Submitted via: ExactAudioCopyFreeDBPlugin 1.0
#
DISCID=2d048f04
DTITLE=Kendrick Lamar - good kid, m.A.A.d city (Deluxe Edition) [CD
DTITLE=2)
DYEAR=2013
DGENRE=Rap
TTITLE0=Kendrick Lamar Feat. Dr. Dre - The Recipe
TTITLE1=Black Boy Fly
TTITLE2=Kendrick Lamar Feat. Mary J. Blige - Now Or Never
TTITLE3=Kendrick Lamar Feat. Dr. Dre - Bitch, Don't Kill My Vibe [Remi
TTITLE3=x]
EXTD=
EXTT0=Featuring Dr. Dre [Bonus Track]
EXTT1=[Bonus Track]
EXTT2=Featuring Mary J. Blige [Bonus Track]
EXTT3=[Remix] Featuring Jay Z
PLAYORDER=
